<svg id="Layer_1" enable-background="new 0 0 512 512" height="512" viewBox="0 0 512 512" width="512" xmlns="http://www.w3.org/2000/svg"><g clip-rule="evenodd" fill-rule="evenodd"><path d="m73.908 168.999-17.571-13.517-17.542 13.517v30.634l18.449 11.392 16.664-11.392z" fill="#ececec"/><path d="m84.478 136.806-65.096-7.198c-2.777-.312-5.101 2.295-5.101 5.101v29.189c0 2.806 2.296 5.101 5.101 5.101h19.413 35.113 10.571c2.806 0 5.101-2.295 5.101-5.101v-21.991c0-2.805-2.324-4.789-5.102-5.101z" fill="#fe636e"/><path d="m61.608 134.738c2.777.34 5.101 2.437 5.101 5.441v23.294.113c0 2.976-2.295 5.384-5.073 5.413h12.271 10.571c2.806 0 5.101-2.295 5.101-5.101v-21.991c0-2.805-2.324-4.789-5.101-5.101l-65.096-7.198c-.397-.057-.765-.028-1.134.028z" fill="#fb2a39"/><path d="m73.908 199.633h-35.113-9.465c-11.137 0-22.077 7.821-21.736 26.723v97.144c-.028 3.712-.142 12.015 8.445 14.368l36.076 9.947 394.118 6.461h38.995c13.575.397 18.789-4.874 18.761-13.716v-53.305-28.849c0-19.497-11.988-22.132-56.424-30.719l-45.202-8.728c-14.708-2.862-11.534-1.559-31.23-18.618l-47.866-41.346c-13.773-11.902-15.332-9.975-42.198-9.947h-106.981c-8.474-.028-17.202 3.146-25.109 9.125l-48.942 37.01c-7.028 5.328-10.089 4.449-17.741 4.449h-8.388z" fill="#fe636e"/><path d="m366.004 323.018h-230.854c.68 3.287 1.049 4.648 1.049 10.174s-1.7 14.708-4.761 21.084h238.846c-3.316-6.603-5.158-16.408-5.158-21.934-.001-5.555.283-6.291.878-9.324z" fill="#acacac"/><path d="m7.593 233.016v40.892l21.708-4.818c10.911-2.409 15.813-1.729 23.607-12.894l8.417-12.044c4.393-6.319-1.7-11.137-4.988-11.137h-48.744z" fill="#a6e7f0"/><path d="m43.641 246.703c-7.793 11.165-12.205 8.887-23.087 11.296l-12.961 2.874v13.036l21.708-4.818c10.911-2.409 15.813-1.729 23.607-12.894l8.417-12.044c4.393-6.319-1.7-11.137-4.988-11.137h-3.372c-.227.538-.538 1.077-.935 1.644z" fill="#6bd9e7"/><path d="m182.392 179.087c-6.291 0-8.048 1.899-12.838 5.328l-23.692 17.06c-4.789 3.457-4.704 7.595-4.704 10.259v7.425c0 .964 1.275 1.785 2.862 1.814l47.214.085c10.514.17 10.514-7.34 10.514-11.845v-25.136c-.085-1.077.113-5.016-6.178-5.016z" fill="#a6e7f0"/><path d="m182.392 221.028 8.842.028c10.514.17 10.514-7.34 10.514-11.845v-25.136c-.085-1.077.113-5.016-6.178-5.016-4.393 0-8.785.028-13.178.028z" fill="#6bd9e7"/><path d="m402.335 283.288c-23.89 0-43.813 17.088-48.149 39.73-.595 3.032-.907 6.121-.907 9.323 0 7.878 1.87 15.331 5.186 21.934 8.048 16.068 24.684 27.12 43.87 27.12 19.214 0 35.85-11.052 43.898-27.12 3.316-6.603 5.158-14.056 5.158-21.934 0-27.091-21.963-49.053-49.056-49.053z" fill="#838383"/><path d="m98.96 284.138c-27.093 0-49.056 21.962-49.056 49.054 0 5.101.794 10.003 2.21 14.623 6.235 19.95 24.854 34.431 46.845 34.431 19.554 0 36.416-11.42 44.295-27.97 3.061-6.376 4.761-13.517 4.761-21.084 0-3.486-.368-6.886-1.049-10.174-4.675-22.217-24.399-38.88-48.006-38.88z" fill="#838383"/><path d="m98.96 316.727c-9.097 0-16.465 7.368-16.465 16.465s7.368 16.465 16.465 16.465 16.465-7.368 16.465-16.465-7.368-16.465-16.465-16.465z" fill="#ececec"/><path d="m402.335 315.877c-9.069 0-16.465 7.368-16.465 16.465 0 9.068 7.397 16.465 16.465 16.465 9.097 0 16.465-7.396 16.465-16.465 0-9.097-7.368-16.465-16.465-16.465z" fill="#ececec"/><path d="m474.119 270.224c-5.753 0-10.486 4.704-10.486 10.485v7.878c0 5.753 4.733 10.485 10.486 10.485h29.87v-28.849h-29.87z" fill="#a6e7f0"/><path d="m482.989 270.224h21v28.849h-21z" fill="#6bd9e7"/><path d="m146.967 323.018c-4.676-22.217-24.4-38.88-48.007-38.88-3.231 0-6.405.312-9.465.907 19.271 3.769 34.518 18.817 38.542 37.974.708 3.287 1.049 6.688 1.049 10.174 0 5.554-.907 10.882-2.607 15.841-.623 1.814-1.332 3.542-2.125 5.243-6.575 13.801-19.413 24.059-34.858 27.063 3.061.595 6.235.907 9.465.907 19.554 0 36.416-11.42 44.295-27.97.765-1.587 1.445-3.231 2.04-4.931 1.757-5.044 2.721-10.485 2.721-16.153-.001-3.487-.37-6.887-1.05-10.175z" fill="#595959"/><path d="m450.342 322.168c-4.676-22.217-24.4-38.88-48.007-38.88-3.231 0-6.376.312-9.437.907 19.243 3.769 34.489 18.788 38.513 37.974.708 3.287 1.077 6.688 1.077 10.174 0 5.526-.935 10.854-2.636 15.841-.595 1.785-1.332 3.542-2.125 5.243-6.575 13.801-19.413 24.031-34.829 27.035 3.061.623 6.206.935 9.437.935 19.554 0 36.416-11.449 44.323-27.97.765-1.615 1.445-3.259 2.012-4.931 1.785-5.073 2.721-10.514 2.721-16.153 0-3.487-.34-6.887-1.049-10.175z" fill="#595959"/><path d="m235.585 179.371c-6.32 0-6.121 3.911-6.206 4.988v28.82c0 4.477-.68 8.275 6.858 8.133h96.581c1.587-.028 2.862-.85 2.862-1.814v-6.206c0-1.36-.425-3.514-2.607-5.129l-31.769-23.408c-4.789-3.429-6.546-5.384-12.838-5.384z" fill="#a6e7f0"/><path d="m301.304 184.755c-4.789-3.429-6.546-5.384-12.838-5.384h-26.129c6.291 0 8.048 1.955 12.838 5.384l31.769 23.408c2.182 1.615 2.607 3.769 2.607 5.129v6.206c0 .964-1.275 1.785-2.862 1.814h26.129c1.587-.028 2.862-.85 2.862-1.814v-6.206c0-1.36-.425-3.514-2.607-5.129z" fill="#6bd9e7"/><path d="m16.038 312.533c-7.793-2.154-8.417-9.182-8.445-13.234v24.201c-.028 3.712-.142 12.015 8.445 14.368l36.076 9.947c-1.417-4.619-2.21-9.522-2.21-14.623 0-3.769.425-7.453 1.247-10.967z" fill="#fb2a39"/><path d="m61.637 168.999h-5.3v30.634h17.571v-30.634z" fill="#cecece"/><path d="m503.989 258.407c0-16.465-8.53-20.885-37.862-27.035 12.668 10.57 16.862 23.663 16.862 35.225v3.627h21z" fill="#fb2a39"/><path d="m482.989 299.072v22.047 33.156h2.239c13.575.397 18.789-4.874 18.761-13.716v-11.619-29.869h-21z" fill="#fb2a39"/></g><path d="m233.119 250.539c-4.174 0-7.557 3.383-7.557 7.556s3.383 7.556 7.557 7.556h28.935c4.174 0 7.557-3.383 7.557-7.556s-3.383-7.556-7.557-7.556z"/><path d="m195.695 171.503-13.162.028c-8.036 0-11.62 2.632-15.77 5.679-.469.345-.966.71-1.513 1.102l-23.682 17.053c-7.889 5.661-7.885 13.11-7.883 16.291v7.559c0 5.15 4.53 9.265 10.313 9.368.041.001.081.001.121.001l47.192.085c.136.002.272.003.407.003 5.431 0 9.769-1.56 12.898-4.639 4.858-4.78 4.858-11.275 4.858-14.766v-25.193c0-.198-.009-.438-.025-.635-.397-7.362-5.662-11.936-13.754-11.936zm-1.335 37.765c0 .982 0 3.228-.358 3.98-.215.093-.933.342-2.505.311-.036 0-.072-.001-.108-.001l-42.589-.077v-1.833c-.001-2.205-.001-2.87 1.592-4.014l23.682-17.053c.585-.419 1.126-.817 1.636-1.191 3.315-2.434 3.741-2.747 6.839-2.747l11.811-.025z"/><path d="m99.017 309.313c-13.246 0-24.022 10.788-24.022 24.049 0 13.245 10.776 24.02 24.022 24.02 13.262 0 24.051-10.776 24.051-24.02 0-13.261-10.79-24.049-24.051-24.049zm0 32.958c-4.912 0-8.908-3.996-8.908-8.909 0-4.928 3.996-8.937 8.908-8.937 4.928 0 8.936 4.009 8.936 8.937 0 4.913-4.009 8.909-8.936 8.909z"/><path d="m402.703 308.463c-13.262 0-24.051 10.776-24.051 24.021 0 13.26 10.789 24.049 24.051 24.049s24.051-10.788 24.051-24.049c0-13.246-10.789-24.021-24.051-24.021zm0 32.958c-4.928 0-8.936-4.009-8.936-8.937 0-4.912 4.009-8.909 8.936-8.909 4.928 0 8.936 3.997 8.936 8.909.001 4.928-4.008 8.937-8.936 8.937z"/><path d="m449.394 220.326-47.235-9.115c-5.251-1.008-6.994-1.371-8.699-2.31-2.114-1.163-5.06-3.74-10.407-8.418-1.893-1.656-4.085-3.574-6.664-5.801l-47.894-41.403c-13.25-11.453-18.025-11.874-36.183-11.794-3.148.013-6.716.028-10.925-.02l-28.906-.34c-.03 0-.06 0-.091 0-4.132 0-7.506 3.325-7.555 7.467-.049 4.172 3.295 7.595 7.468 7.644l28.908.34c4.33.05 7.962.034 11.166.021 16.136-.068 16.764-.071 26.233 8.114l47.897 41.405c2.554 2.206 4.722 4.102 6.594 5.739 12.474 10.913 13.717 11.798 26.21 14.196l47.216 9.112c46.125 8.931 50.36 10.893 50.36 23.329v4.29h-22.341c-9.949 0-18.043 8.093-18.043 18.041v7.878c0 9.948 8.094 18.041 18.043 18.041h22.341v34.013c.01 3.01-.872 3.871-1.162 4.154-.683.667-3.013 2.195-9.865 2.013-.068-.002-.136-.003-.205-.003h-28.15c1.216-4.611 1.87-9.447 1.87-14.435 0-31.23-25.422-56.638-56.67-56.638-25.379 0-46.914 16.76-54.108 39.787h-84.417c-4.174 0-7.557 3.383-7.557 7.556s3.383 7.556 7.557 7.556h81.898c-.018.579-.044 1.156-.044 1.739 0 4.987.654 9.824 1.87 14.435h-193.87c1.072-4.346 1.653-8.884 1.653-13.556 0-.878-.027-1.75-.066-2.618h77.244c4.174 0 7.557-3.383 7.557-7.556s-3.383-7.556-7.557-7.556h-80.035c-7.462-22.586-28.758-38.937-53.814-38.937-31.232 0-56.641 25.421-56.641 56.667 0 1.394.068 2.771.168 4.14l-24.492-6.747c-1.852-.512-2.974-1.236-2.93-6.963 0-.019.001-.103.001-.122v-43.585l15.826-3.508c1.544-.345 2.962-.623 4.282-.882 9.603-1.89 15.896-3.63 23.901-15.086l8.437-12.073c3.321-4.8 3.798-10.277 1.308-15.026-2.459-4.69-7.604-7.966-12.511-7.966h-41.234c.007-6.427 1.6-11.467 4.66-14.582 3.041-3.096 6.85-3.745 9.51-3.745h53.052c.966 0 1.855.015 2.686.028 6.138.102 11.44.188 19.612-6.006l49.001-37.04c6.625-5.01 13.742-7.624 20.549-7.623h42.453c4.174 0 7.557-3.383 7.557-7.556s-3.383-7.556-7.557-7.556h-42.427c-10.149-.041-20.407 3.661-29.691 10.682l-49.008 37.045c-4.021 3.047-5.091 3.028-10.24 2.945-.908-.015-1.88-.031-2.935-.031h-.86v-15.551h3.013c6.995 0 12.687-5.678 12.687-12.657v-22.019c0-6.544-4.985-11.847-11.857-12.611l-65.145-7.197c-3.3-.371-6.651.721-9.193 2.994-2.735 2.444-4.303 5.949-4.303 9.615v29.217c0 6.979 5.679 12.657 12.659 12.657h11.883v15.551h-1.937c-7.848 0-15.055 2.936-20.293 8.268-4.235 4.312-9.231 12.34-9.001 26.108v6.619 40.921 49.655c-.091 11.767 4.625 19.05 14.023 21.646l32.347 8.912c8.331 20.927 28.779 35.766 52.641 35.766 20.786 0 38.983-11.25 48.845-27.97h206.507c9.973 16.253 27.907 27.12 48.335 27.12s38.362-10.867 48.335-27.12h34.515c.481.012.954.018 1.422.018 8.625 0 14.952-2.076 19.307-6.327 3.814-3.723 5.737-8.774 5.717-14.991v-82.238c0-26.044-18.326-29.592-62.606-38.166zm-427.584-82.873 60.269 6.659v17.331h-60.269zm24.542 39.102h20.026v15.551h-20.026zm.389 75.399c-4.921 7.042-7.125 7.476-14.429 8.914-1.436.283-2.979.587-4.646.959l-12.543 2.78v-23.951h39.515zm52.276 122.934c-22.898 0-41.527-18.629-41.527-41.526 0-22.914 18.629-41.555 41.527-41.555 22.914 0 41.555 18.641 41.555 41.555 0 22.898-18.642 41.526-41.555 41.526zm303.686-.85c-22.914 0-41.555-18.641-41.555-41.555 0-22.898 18.641-41.527 41.555-41.527s41.555 18.629 41.555 41.527c.001 22.914-18.641 41.555-41.555 41.555zm71.841-82.408c-1.614 0-2.928-1.314-2.928-2.929v-7.878c0-1.616 1.314-2.929 2.928-2.929h22.341v13.737h-22.341z"/><path d="m222.02 184.387v28.82c0 .32-.004.636-.007.947-.036 3.015-.09 7.571 3.487 11.124 3.384 3.36 8.081 3.654 10.346 3.654.252 0 .474-.003.66-.007h96.594c.091 0 .181-.002.272-.005 5.785-.208 10.148-4.234 10.148-9.365v-6.206c0-4.5-2.085-8.596-5.68-11.211l-31.857-23.48c-.559-.404-1.075-.786-1.561-1.146-3.954-2.929-7.689-5.697-15.729-5.697h-52.91c-8.096 0-13.36 4.575-13.744 12.028-.012.181-.019.362-.019.544zm15.115 28.82v-26.281h51.559c3.051 0 3.47.31 6.73 2.726.533.395 1.099.814 1.652 1.213l31.134 22.947h-91.078c.001-.199.003-.401.003-.605z"/></svg>